<?xml version="1.0" encoding="iso-8859-1"?>
<!-- Uploaded to: SVG Repo, www.svgrepo.com, Generator: SVG Repo Mixer Tools -->
<svg version="1.1" id="Layer_1" xmlns="http://www.w3.org/2000/svg" xmlns:xlink="http://www.w3.org/1999/xlink" 
	 viewBox="0 0 512 512" xml:space="preserve">
<g>
	<polygon style="fill:#FF583E;" points="104,198.384 93.456,186.352 258.824,41.32 418.44,186.448 407.688,198.296 258.632,62.76 	
		"/>
	<circle style="fill:#FF583E;" cx="258.72" cy="64.496" r="37.48"/>
</g>
<rect x="4" y="181.248" width="504" height="299.736"/>
<path d="M504,185.248v291.736H8V185.248H504 M512,177.248H0v307.736h512V177.248L512,177.248z"/>
<path style="fill:#FFFFFF;" d="M346.064,291.872v129.992L165.944,422V291.872"/>
<rect x="144.72" y="415.032" style="fill:#32BEA6;" width="222.68" height="13.928"/>
<rect x="227.928" y="350.624" width="56.16" height="64.4"/>
<path style="fill:#FF583E;" d="M367.376,266.56l-35.6-35.368h-75.96h-9.448h-66.184l-35.592,35.368h-0.008v33.672
	c0,15.32,12.472,27.736,27.856,27.736s27.856-12.416,27.856-27.736c0,15.32,12.472,27.736,27.856,27.736S256,315.552,256,300.232
	c0,15.32,12.472,27.736,27.856,27.736c15.36,0,27.808-12.376,27.848-27.656c0.04,15.288,12.488,27.656,27.848,27.656
	c15.384,0,27.856-12.416,27.856-27.736V266.56H367.376z"/>
</svg>